#!OML:ASF I:\Random Stuff\random\construction\7_22_03\Session 2\subj1.ASF
:FULLY-SPECIFIED
:DEGREES
538
root 4.28997 17.7181 -7.96075 18.1623 -25.9453 -7.45277
lowerback 13.1606 -1.12694 0.580869
upperback 6.23626 -1.66431 -6.13219
thorax -1.00843 -0.785179 -6.55729
lowerneck -20.7108 4.70721 -1.33515
upperneck 44.3269 8.32958 -1.34255
head 21.5276 2.40785 1.38432
rclavicle 3.81667e-014 -9.85972e-014
rhumerus -13.4079 49.3495 -36.7376
rradius 116.205
rwrist -38.3085
rhand -10.7931 3.84793
rfingers 7.12502
rthumb 15.2198 -25.5722
lclavicle 3.81667e-014 -9.85972e-014
lhumerus 6.43541 -56.5409 78.7596
lradius 47.9868
lwrist 20.0077
lhand -18.6233 53.4357
lfingers 7.12502
lthumb 7.66873 83.2767
rfemur -18.4962 -2.01749 26.3916
rtibia 5.56597e-015
rfoot 0.15185 5.85349
rtoes -31.9439
lfemur -25.85 -4.86062 -3.31455
ltibia 26.6677
lfoot -15.7716 9.25728
ltoes -28.2496
539
root 4.29259 17.717 -7.96626 18.1251 -26.0081 -7.40105
lowerback 13.2102 -1.11008 0.513237
upperback 6.23876 -1.65171 -6.13402
thorax -1.02946 -0.780538 -6.52156
lowerneck -20.7547 4.69406 -1.30564
upperneck 44.2971 8.3611 -1.47712
head 21.5367 2.40645 1.31814
rclavicle -2.38542e-014 6.04305e-014
rhumerus -13.4314 49.129 -36.6941
rradius 116.111
rwrist -38.4601
rhand -10.862 3.53246
rfingers 7.12502
rthumb 15.1534 -25.8927
lclavicle -2.38542e-014 6.04305e-014
lhumerus 6.38522 -56.541 78.8005
lradius 48.1395
lwrist 20.2545
lhand -17.3004 53.7621
lfingers 7.12502
lthumb 8.94548 83.5525
rfemur -18.5093 -1.9978 26.3265
rtibia -6.36111e-015
rfoot 0.173714 5.87517
rtoes -31.8793
lfemur -25.8398 -4.71463 -3.41166
ltibia 26.6721
lfoot -15.7129 9.18152
ltoes -28.668
540
root 4.29498 17.7173 -7.97084 18.086 -26.058 -7.31841
lowerback 13.2224 -1.08914 0.467491
upperback 6.25136 -1.63006 -6.14557
thorax -1.0194 -0.770229 -6.51078
lowerneck -20.7695 4.67557 -1.28779
upperneck 44.2874 8.38879 -1.61053
head 21.5508 2.40152 1.25295
rclavicle -4.77083e-015 -1.43125e-014
rhumerus -13.4721 48.9665 -36.655
rradius 116.118
rwrist -38.681
rhand -10.7652 3.01341
rfingers 7.12502
rthumb 15.2467 -26.4047
lclavicle -4.77083e-015 -1.43125e-014
lhumerus 6.39145 -56.8588 78.7984
lradius 48.4424
lwrist 21.865
lhand -19.1986 53.9632
lfingers 7.12502
lthumb 7.11341 83.8237
rfemur -18.5345 -1.99808 26.2386
rtibia -1.90833e-014
rfoot 0.193306 5.91532
rtoes -31.9109
lfemur -25.8332 -4.67048 -3.51319
ltibia 26.6452
lfoot -15.6697 9.1763
ltoes -28.7079
541
root 4.29842 17.7185 -7.97348 18.0547 -26.0474 -7.22588
lowerback 13.1941 -1.09732 0.482523
upperback 6.26823 -1.63835 -6.16836
thorax -0.988195 -0.773149 -6.54333
lowerneck -20.7605 4.71279 -1.26959
upperneck 44.2767 8.48445 -1.70308
head 21.5523 2.42779 1.22371
rclavicle 2.54444e-014 3.65764e-014
rhumerus -13.5215 48.9129 -36.647
rradius 116.106
rwrist -38.6446
rhand -10.7533 3.00641
rfingers 7.12502
rthumb 15.2581 -26.4109
lclavicle 2.54444e-014 3.65764e-014
lhumerus 6.41354 -56.5083 78.9293
lradius 48.2138
lwrist 20.3773
lhand -17.8511 54.0277
lfingers 7.12502
lthumb 8.41408 83.8401
rfemur -18.5654 -2.05787 26.1605
rtibia -9.54166e-015
rfoot 0.188971 5.93602
rtoes -32.0451
lfemur -25.8542 -4.71551 -3.59495
ltibia 26.5972
lfoot -15.6357 9.19856
ltoes -28.5695
542
root 4.3026 17.7211 -7.97505 18.0454 -26.0468 -7.17145
lowerback 13.1554 -1.11192 0.541982
upperback 6.28063 -1.65045 -6.20735
thorax -0.957899 -0.777108 -6.61868
lowerneck -20.7197 4.79295 -1.22044
upperneck 44.2289 8.61251 -1.75997
head 21.5141 2.47899 1.21333
rclavicle -3.02153e-014 -3.97569e-014
rhumerus -13.5878 48.9053 -36.6958
rradius 116.047
rwrist -38.1902
rhand -10.6034 3.14278
rfingers 7.12502
rthumb 15.4025 -26.2634
lclavicle -3.02153e-014 -3.97569e-014
lhumerus 6.39184 -56.5444 78.9224
lradius 48.3388
lwrist 20.5034
lhand -17.6133 54.5753
lfingers 7.12502
lthumb 8.64354 84.3784
rfemur -18.5817 -2.1047 26.0963
rtibia 1.35174e-014
rfoot 0.21817 5.9334
rtoes -31.328
lfemur -25.8678 -4.74542 -3.64408
ltibia 26.5517
lfoot -15.6356 9.20858
ltoes -28.3611
543
root 4.30412 17.7224 -7.97758 18.0278 -26.1993 -7.17579
lowerback 13.167 -1.06877 0.513042
upperback 6.28358 -1.59846 -6.21937
thorax -0.954344 -0.751777 -6.62245
lowerneck -20.6737 4.84835 -1.23073
upperneck 44.1981 8.71069 -1.7813
head 21.4789 2.5131 1.22468
rclavicle 1.43125e-014 4.92986e-014
rhumerus -13.5782 49.0296 -36.7073
rradius 115.978
rwrist -37.7276
rhand -10.5386 3.29041
rfingers 7.12502
rthumb 15.4649 -26.111
lclavicle 1.43125e-014 4.92986e-014
lhumerus 6.4268 -56.6028 78.893
lradius 48.4131
lwrist 20.9585
lhand -18.2706 54.7735
lfingers 7.12502
lthumb 8.00921 84.6018
rfemur -18.563 -1.9894 26.0426
rtibia 1.11319e-014
rfoot 0.276593 5.95514
rtoes -30.4579
lfemur -25.7739 -4.66596 -3.68239
ltibia 26.516
lfoot -15.6304 9.21889
ltoes -28.1042
544
root 4.30478 17.7203 -7.97987 18.008 -26.3206 -7.18965
lowerback 13.1831 -1.02767 0.461634
upperback 6.28794 -1.55025 -6.19073
thorax -0.950954 -0.729014 -6.5686
lowerneck -20.6541 4.86165 -1.31481
upperneck 44.2089 8.75818 -1.75871
head 21.4724 2.51929 1.26135
rclavicle -6.20208e-014 -9.54166e-015
rhumerus -13.5094 49.2346 -36.6648
rradius 115.97
rwrist -37.5438
rhand -10.5395 3.7236
rfingers 7.12502
rthumb 15.464 -25.6779
lclavicle -6.20208e-014 -9.54166e-015
lhumerus 6.42393 -56.3957 78.9978
lradius 48.26
lwrist 19.9904
lhand -19.0929 54.1007
lfingers 7.12502
lthumb 7.21546 83.9577
rfemur -18.5609 -1.88469 26.0428
rtibia 6.20208e-014
rfoot 0.259957 6.01248
rtoes -31.1297
lfemur -25.6905 -4.56894 -3.71222
ltibia 26.4902
lfoot -15.5858 9.22466
ltoes -28.1798
545
root 4.30604 17.7188 -7.98115 17.991 -26.3426 -7.17421
lowerback 13.1669 -1.03098 0.426422
upperback 6.30203 -1.55649 -6.15635
thorax -0.926672 -0.732546 -6.51031
lowerneck -20.6771 4.86836 -1.37868
upperneck 44.2336 8.77411 -1.70555
head 21.4873 2.5196 1.30479
rclavicle 3.18055e-014 -4.29375e-014
rhumerus -13.4225 49.3583 -36.5901
rradius 116.033
rwrist -37.0853
rhand -10.0516 4.10622
rfingers 7.12502
rthumb 15.934 -25.2583
lclavicle 3.18055e-014 -4.29375e-014
lhumerus 6.35961 -56.1737 79.0657
lradius 48.375
lwrist 20.0973
lhand -17.5479 54.2185
lfingers 7.12502
lthumb 8.70668 84.0189
rfemur -18.5662 -1.88351 26.0439
rtibia 3.89618e-014
rfoot 0.218041 6.04653
rtoes -31.9876
lfemur -25.6721 -4.52527 -3.74778
ltibia 26.4802
lfoot -15.5889 9.26489
ltoes -28.5661
546
root 4.3074 17.7187 -7.98279 17.9483 -26.3624 -7.13549
lowerback 13.173 -1.04599 0.366312
upperback 6.31352 -1.58172 -6.12093
thorax -0.91881 -0.746355 -6.4336
lowerneck -20.755 4.8328 -1.46471
upperneck 44.3295 8.72534 -1.6213
head 21.5676 2.49063 1.35634
rclavicle 0 4.77083e-014
rhumerus -13.2964 49.5801 -36.4661
rradius 116.121
rwrist -36.3258
rhand -9.57746 4.42507
rfingers 7.12502
rthumb 16.3905 -24.9024
lclavicle 0 4.77083e-014
lhumerus 6.4939 -56.0804 78.9391
lradius 48.6581
lwrist 21.9097
lhand -17.8467 53.9538
lfingers 7.12502
lthumb 8.41824 83.766
rfemur -18.5389 -1.90219 26.005
rtibia 5.32743e-014
rfoot 0.208308 6.0398
rtoes -32.157
lfemur -25.6544 -4.47831 -3.80734
ltibia 26.4837
lfoot -15.597 9.23721
ltoes -28.6111
547
root 4.30966 17.7187 -7.98482 17.9002 -26.3824 -7.10042
lowerback 13.1967 -1.04567 0.342881
upperback 6.31473 -1.58407 -6.10066
thorax -0.929637 -0.748335 -6.39764
lowerneck -20.8025 4.78654 -1.52463
upperneck 44.4086 8.67983 -1.60686
head 21.6365 2.45959 1.36674
rclavicle -2.8625e-014 4.6118e-014
rhumerus -13.2444 49.816 -36.4341
rradius 116.287
rwrist -36.1401
rhand -9.37577 4.55329
rfingers 7.12502
rthumb 16.5847 -24.7581
lclavicle -2.8625e-014 4.6118e-014
lhumerus 6.77288 -56.549 78.6319
lradius 48.4546
lwrist 20.8361
lhand -18.489 54.0437
lfingers 7.12502
lthumb 7.79839 83.8799
rfemur -18.5105 -1.92072 25.9675
rtibia -2.46493e-014
rfoot 0.194565 6.04934
rtoes -32.2109
lfemur -25.6347 -4.46613 -3.85616
ltibia 26.491
lfoot -15.56 9.19213
ltoes -28.4418
548
root 4.31277 17.7187 -7.98681 17.9077 -26.3876 -7.1096
lowerback 13.18 -1.05541 0.378743
upperback 6.30625 -1.59219 -6.09209
thorax -0.931157 -0.751893 -6.40798
lowerneck -20.7838 4.80594 -1.45962
upperneck 44.4063 8.72478 -1.70142
head 21.645 2.47416 1.31596
rclavicle -5.56597e-014 9.54166e-015
rhumerus -13.198 49.813 -36.4562
rradius 116.422
rwrist -36.1934
rhand -8.91348 4.63022
rfingers 7.12502
rthumb 17.0297 -24.6433
lclavicle -5.56597e-014 9.54166e-015
lhumerus 6.84865 -56.3745 78.6318
lradius 48.1588
lwrist 19.8127
lhand -17.9081 53.6354
lfingers 7.12502
lthumb 8.359 83.45
rfemur -18.5285 -1.93503 25.9778
rtibia 3.18055e-014
rfoot 0.180152 6.08531
rtoes -32.2262
lfemur -25.658 -4.46591 -3.85359
ltibia 26.5078
lfoot -15.5529 9.24122
ltoes -28.7603
